{
  "accessors": [
    {
      "bufferView": 2,
      "componentType": 5126,
      "count": 547,
      "max": [
        0.10350199788808823,
        0.02875800058245659,
        1.7662450075149536
      ],
      "min": [
        -0.10025999695062637,
        -0.10618700087070465,
        1.5480910539627075
      ],
      "type": "VEC3"
    },
    {
      "bufferView": 2,
      "byteOffset": 6564,
      "componentType": 5126,
      "count": 547,
      "max": [
        0.997717559337616,
        0.9986886978149414,
        0.9999638795852661
      ],
      "min": [
        -0.9979979991912842,
        -0.9990250468254089,
        -0.9954632520675659
      ],
      "type": "VEC3"
    },
    {
      "bufferView": 1,
      "componentType": 5126,
      "count": 547,
      "max": [
        0.3571780025959015,
        0.8970339894294739
      ],
      "min": [
        0.31103500723838806,
        0.8646240234375
      ],
      "type": "VEC2"
    },
    {
      "bufferView": 0,
      "componentType": 5125,
      "count": 2952,
      "type": "SCALAR"
    },
    {
      "bufferView": 2,
      "byteOffset": 13128,
      "componentType": 5126,
      "count": 2839,
      "max": [
        0.22295799851417542,
        0.22375699877738953,
        1.874014973640442
      ],
      "min": [
        -0.22295799851417542,
        -0.09869100153446198,
        1.4751280546188354
      ],
      "type": "VEC3"
    },
    {
      "bufferView": 2,
      "byteOffset": 47196,
      "componentType": 5126,
      "count": 2839,
      "max": [
        0.9996417164802551,
        0.9998118281364441,
        1.0
      ],
      "min": [
        -0.9996417164802551,
        -0.9999998807907104,
        -0.999987006187439
      ],
      "type": "VEC3"
    },
    {
      "bufferView": 1,
      "byteOffset": 4376,
      "componentType": 5126,
      "count": 2839,
      "max": [
        0.3793950080871582,
        0.4223630130290985
      ],
      "min": [
        0.05850199982523918,
        0.10107400268316269
      ],
      "type": "VEC2"
    },
    {
      "bufferView": 0,
      "byteOffset": 11808,
      "componentType": 5125,
      "count": 15012,
      "type": "SCALAR"
    },
    {
      "bufferView": 2,
      "byteOffset": 81264,
      "componentType": 5126,
      "count": 934,
      "max": [
        0.1635970026254654,
        0.020907999947667122,
        1.8577769994735718
      ],
      "min": [
        -0.1635970026254654,
        -0.07582899928092957,
        1.7167749404907227
      ],
      "type": "VEC3"
    },
    {
      "bufferView": 2,
      "byteOffset": 92472,
      "componentType": 5126,
      "count": 934,
      "max": [
        0.998245358467102,
        0.8215415477752686,
        0.9826781749725342
      ],
      "min": [
        -0.998245358467102,
        -0.9999977350234985,
        -0.9988313913345337
      ],
      "type": "VEC3"
    },
    {
      "bufferView": 1,
      "byteOffset": 27088,
      "componentType": 5126,
      "count": 934,
      "max": [
        0.16296400129795074,
        1.6186519861221313
      ],
      "min": [
        0.06500200182199478,
        0.8558350205421448
      ],
      "type": "VEC2"
    },
    {
      "bufferView": 0,
      "byteOffset": 71856,
      "componentType": 5125,
      "count": 5136,
      "type": "SCALAR"
    }
  ],
  "asset": {
    "extras": {
      "author": "Tigerar1 (https://sketchfab.com/allanromanreyes)",
      "license": "SKETCHFAB Standard (https://sketchfab.com/licenses)",
      "source": "https://sketchfab.com/3d-models/frog-head-2eb7ba0fc5284a3b8aa30f7ede107c6a",
      "title": "Frog Head"
    },
    "generator": "Sketchfab-15.83.0",
    "version": "2.0"
  },
  "bufferViews": [
    {
      "buffer": 0,
      "byteLength": 92400,
      "name": "floatBufferViews",
      "target": 34963
    },
    {
      "buffer": 0,
      "byteLength": 34560,
      "byteOffset": 92400,
      "byteStride": 8,
      "name": "floatBufferViews",
      "target": 34962
    },
    {
      "buffer": 0,
      "byteLength": 103680,
      "byteOffset": 126960,
      "byteStride": 12,
      "name": "floatBufferViews",
      "target": 34962
    }
  ],
  "buffers": [
    {
      "byteLength": 230640,
      "uri": "scene.bin"
    }
  ],
  "images": [
    {
      "uri": "textures/Frog_Head_Hair_Color_baseColor.png"
    }
  ],
  "materials": [
    {
      "doubleSided": true,
      "name": "Frog_Head_Hair_Color",
      "pbrMetallicRoughness": {
        "baseColorTexture": {
          "index": 0
        },
        "metallicFactor": 0.0
      }
    },
    {
      "doubleSided": true,
      "name": "Frog_Head_Part_Color",
      "pbrMetallicRoughness": {
        "baseColorTexture": {
          "index": 0
        },
        "metallicFactor": 0.0
      }
    },
    {
      "doubleSided": true,
      "name": "MI_CHR_Woman_FrogHead",
      "pbrMetallicRoughness": {
        "baseColorTexture": {
          "index": 0
        },
        "metallicFactor": 0.0
      }
    }
  ],
  "meshes": [
    {
      "name": "Object_0",
      "primitives": [
        {
          "attributes": {
            "NORMAL": 1,
            "POSITION": 0,
            "TEXCOORD_0": 2
          },
          "indices": 3,
          "material": 0,
          "mode": 4
        }
      ]
    },
    {
      "name": "Object_1",
      "primitives": [
        {
          "attributes": {
            "NORMAL": 5,
            "POSITION": 4,
            "TEXCOORD_0": 6
          },
          "indices": 7,
          "material": 1,
          "mode": 4
        }
      ]
    },
    {
      "name": "Object_2",
      "primitives": [
        {
          "attributes": {
            "NORMAL": 9,
            "POSITION": 8,
            "TEXCOORD_0": 10
          },
          "indices": 11,
          "material": 2,
          "mode": 4
        }
      ]
    }
  ],
  "nodes": [
    {
      "children": [
        1
      ],
      "matrix": [
        1.0,
        0.0,
        0.0,
        0.0,
        0.0,
        2.220446049250313e-16,
        -1.0,
        0.0,
        0.0,
        1.0,
        2.220446049250313e-16,
        0.0,
        0.0,
        0.0,
        0.0,
        1.0
      ],
      "name": "Sketchfab_model"
    },
    {
      "children": [
        2,
        3,
        4
      ],
      "name": "Frog Head.obj.cleaner.materialmerger.gles"
    },
    {
      "mesh": 0,
      "name": "Object_2"
    },
    {
      "mesh": 1,
      "name": "Object_3"
    },
    {
      "mesh": 2,
      "name": "Object_4"
    }
  ],
  "samplers": [
    {
      "magFilter": 9729,
      "minFilter": 9987,
      "wrapS": 10497,
      "wrapT": 10497
    }
  ],
  "scene": 0,
  "scenes": [
    {
      "name": "Sketchfab_Scene",
      "nodes": [
        0
      ]
    }
  ],
  "textures": [
    {
      "sampler": 0,
      "source": 0
    }
  ]
}
