{
  "accessors": [
    {
      "bufferView": 2,
      "componentType": 5126,
      "count": 15533,
      "max": [
        0.5809800028800964,
        0.5809800028800964,
        1.0043020248413086
      ],
      "min": [
        -0.5809800028800964,
        -0.5809800028800964,
        0.004356000106781721
      ],
      "type": "VEC3"
    },
    {
      "bufferView": 2,
      "byteOffset": 186396,
      "componentType": 5126,
      "count": 15533,
      "max": [
        1.0,
        1.0,
        1.0
      ],
      "min": [
        -1.0,
        -1.0,
        -1.0
      ],
      "type": "VEC3"
    },
    {
      "bufferView": 3,
      "componentType": 5126,
      "count": 15533,
      "max": [
        1.0,
        1.0,
        0.9998828172683716,
        1.0
      ],
      "min": [
        -1.0,
        -1.0,
        -0.9998834729194641,
        -1.0
      ],
      "type": "VEC4"
    },
    {
      "bufferView": 1,
      "componentType": 5126,
      "count": 15533,
      "max": [
        0.9997509717941284,
        0.9883990287780762
      ],
      "min": [
        0.00023299999884329736,
        0.00023299999884329736
      ],
      "type": "VEC2"
    },
    {
      "bufferView": 0,
      "componentType": 5125,
      "count": 82944,
      "type": "SCALAR"
    }
  ],
  "asset": {
    "extras": {
      "author": "kshitiz1542 (https://sketchfab.com/kshitiz1542)",
      "license": "CC-BY-4.0 (http://creativecommons.org/licenses/by/4.0/)",
      "source": "https://sketchfab.com/3d-models/round-table-23da1e7c1b9f4d7eadb07178562034a0",
      "title": "Round Table"
    },
    "generator": "Sketchfab-15.61.0",
    "version": "2.0"
  },
  "bufferViews": [
    {
      "buffer": 0,
      "byteLength": 331776,
      "name": "floatBufferViews",
      "target": 34963
    },
    {
      "buffer": 0,
      "byteLength": 124264,
      "byteOffset": 331776,
      "byteStride": 8,
      "name": "floatBufferViews",
      "target": 34962
    },
    {
      "buffer": 0,
      "byteLength": 372792,
      "byteOffset": 456040,
      "byteStride": 12,
      "name": "floatBufferViews",
      "target": 34962
    },
    {
      "buffer": 0,
      "byteLength": 248528,
      "byteOffset": 828832,
      "byteStride": 16,
      "name": "floatBufferViews",
      "target": 34962
    }
  ],
  "buffers": [
    {
      "byteLength": 1077360,
      "uri": "scene.bin"
    }
  ],
  "images": [
    {
      "uri": "textures/table_baseColor.jpeg"
    },
    {
      "uri": "textures/table_metallicRoughness.png"
    },
    {
      "uri": "textures/table_normal.png"
    }
  ],
  "materials": [
    {
      "doubleSided": true,
      "name": "table",
      "normalTexture": {
        "index": 2
      },
      "occlusionTexture": {
        "index": 1
      },
      "pbrMetallicRoughness": {
        "baseColorTexture": {
          "index": 0
        },
        "metallicRoughnessTexture": {
          "index": 1
        },
        "roughnessFactor": 0.6
      }
    }
  ],
  "meshes": [
    {
      "name": "Object_0",
      "primitives": [
        {
          "attributes": {
            "NORMAL": 1,
            "POSITION": 0,
            "TANGENT": 2,
            "TEXCOORD_0": 3
          },
          "indices": 4,
          "material": 0,
          "mode": 4
        }
      ]
    }
  ],
  "nodes": [
    {
      "children": [
        1
      ],
      "matrix": [
        1.0,
        0.0,
        0.0,
        0.0,
        0.0,
        2.220446049250313e-16,
        -1.0,
        0.0,
        0.0,
        1.0,
        2.220446049250313e-16,
        0.0,
        0.0,
        0.0,
        0.0,
        1.0
      ],
      "name": "Sketchfab_model"
    },
    {
      "children": [
        2
      ],
      "name": "low.obj.cleaner.materialmerger.gles"
    },
    {
      "mesh": 0,
      "name": "Object_2"
    }
  ],
  "samplers": [
    {
      "magFilter": 9729,
      "minFilter": 9987,
      "wrapS": 10497,
      "wrapT": 10497
    }
  ],
  "scene": 0,
  "scenes": [
    {
      "name": "Sketchfab_Scene",
      "nodes": [
        0
      ]
    }
  ],
  "textures": [
    {
      "sampler": 0,
      "source": 0
    },
    {
      "sampler": 0,
      "source": 1
    },
    {
      "sampler": 0,
      "source": 2
    }
  ]
}
